<svg width="1581" height="400" viewBox="0 0 1581 400" fill="none" xmlns="http://www.w3.org/2000/svg">
<path d="M73.17 325.24C58.05 325.24 46.08 322.09 37.26 315.79C28.62 309.49 22.41 300.67 18.63 289.33C15.03 277.81 13.23 264.58 13.23 249.64V176.2C13.23 160.72 15.21 147.31 19.17 135.97C23.13 124.63 29.88 115.9 39.42 109.78C49.14 103.48 62.28 100.33 78.84 100.33C95.04 100.33 107.73 103.03 116.91 108.43C126.27 113.83 132.93 121.3 136.89 130.84C140.85 140.38 142.83 151.54 142.83 164.32V178.36H95.58V160.54C95.58 155.86 95.22 151.54 94.5 147.58C93.96 143.62 92.52 140.47 90.18 138.13C88.02 135.61 84.42 134.35 79.38 134.35C74.16 134.35 70.38 135.79 68.04 138.67C65.7 141.37 64.17 144.79 63.45 148.93C62.91 153.07 62.64 157.39 62.64 161.89V263.14C62.64 268 63.09 272.59 63.99 276.91C65.07 281.05 66.87 284.47 69.39 287.17C72.09 289.69 75.87 290.95 80.73 290.95C85.77 290.95 89.64 289.6 92.34 286.9C95.04 284.2 96.93 280.69 98.01 276.37C99.09 272.05 99.63 267.46 99.63 262.6V236.95H79.92V208.6H143.1V322H111.24L108.54 303.91C105.66 310.03 101.43 315.16 95.85 319.3C90.27 323.26 82.71 325.24 73.17 325.24ZM178.748 322V103.3H277.028V136.24H227.078V190.51H265.148V223.99H227.078V289.33H277.568V322H178.748ZM324.62 322V139.21H291.68V103.3H405.89V139.21H373.22V322H324.62ZM505.297 322V103.3H553.627V322H505.297ZM591.638 322V103.3H625.658L670.478 208.6V103.3H710.438V322H677.768L632.948 208.6V322H591.638ZM842.577 322V139.21H809.637V103.3H923.847V139.21H891.177V322H842.577ZM1009.03 325.24C992.652 325.24 979.692 322.36 970.152 316.6C960.612 310.84 953.772 302.56 949.632 291.76C945.492 280.96 943.422 268.09 943.422 253.15V171.88C943.422 156.76 945.492 143.89 949.632 133.27C953.772 122.65 960.612 114.55 970.152 108.97C979.692 103.21 992.652 100.33 1009.03 100.33C1025.59 100.33 1038.64 103.21 1048.18 108.97C1057.9 114.55 1064.83 122.65 1068.97 133.27C1073.11 143.89 1075.18 156.76 1075.18 171.88V253.15C1075.18 268.09 1073.11 280.96 1068.97 291.76C1064.83 302.56 1057.9 310.84 1048.18 316.6C1038.64 322.36 1025.59 325.24 1009.03 325.24ZM1009.03 290.95C1014.07 290.95 1017.76 289.69 1020.1 287.17C1022.44 284.65 1023.97 281.41 1024.69 277.45C1025.41 273.49 1025.77 269.44 1025.77 265.3V160C1025.77 155.68 1025.41 151.63 1024.69 147.85C1023.97 143.89 1022.44 140.65 1020.1 138.13C1017.76 135.61 1014.07 134.35 1009.03 134.35C1004.35 134.35 1000.84 135.61 998.502 138.13C996.162 140.65 994.632 143.89 993.912 147.85C993.192 151.63 992.832 155.68 992.832 160V265.3C992.832 269.44 993.102 273.49 993.642 277.45C994.362 281.41 995.802 284.65 997.962 287.17C1000.3 289.69 1003.99 290.95 1009.03 290.95ZM1173.18 325.24C1156.44 325.24 1143.3 322.54 1133.76 317.14C1124.4 311.56 1117.83 303.55 1114.05 293.11C1110.27 282.49 1108.38 269.53 1108.38 254.23V103.3H1156.17V261.52C1156.17 266.02 1156.53 270.52 1157.25 275.02C1157.97 279.52 1159.5 283.21 1161.84 286.09C1164.36 288.97 1168.14 290.41 1173.18 290.41C1178.4 290.41 1182.18 288.97 1184.52 286.09C1186.86 283.21 1188.3 279.52 1188.84 275.02C1189.56 270.52 1189.92 266.02 1189.92 261.52V103.3H1237.98V254.23C1237.98 269.53 1236 282.49 1232.04 293.11C1228.26 303.55 1221.69 311.56 1212.33 317.14C1202.97 322.54 1189.92 325.24 1173.18 325.24ZM1336.77 325.24C1320.21 325.24 1307.07 322.27 1297.35 316.33C1287.81 310.21 1281.06 301.75 1277.1 290.95C1273.14 279.97 1271.16 267.1 1271.16 252.34V173.5C1271.16 158.38 1273.14 145.42 1277.1 134.62C1281.06 123.64 1287.81 115.18 1297.35 109.24C1307.07 103.3 1320.21 100.33 1336.77 100.33C1352.97 100.33 1365.57 103.03 1374.57 108.43C1383.75 113.65 1390.23 121.03 1394.01 130.57C1397.79 140.11 1399.68 151.09 1399.68 163.51V182.41H1352.43V160.54C1352.43 156.22 1352.16 152.08 1351.62 148.12C1351.26 144.16 1350 140.92 1347.84 138.4C1345.68 135.7 1341.99 134.35 1336.77 134.35C1331.73 134.35 1327.95 135.7 1325.43 138.4C1323.09 141.1 1321.56 144.52 1320.84 148.66C1320.3 152.62 1320.03 156.85 1320.03 161.35V264.22C1320.03 269.08 1320.39 273.58 1321.11 277.72C1322.01 281.68 1323.63 284.92 1325.97 287.44C1328.49 289.78 1332.09 290.95 1336.77 290.95C1341.81 290.95 1345.41 289.69 1347.57 287.17C1349.73 284.47 1351.08 281.05 1351.62 276.91C1352.16 272.77 1352.43 268.54 1352.43 264.22V241.27H1399.68V260.17C1399.68 272.59 1397.79 283.75 1394.01 293.65C1390.41 303.37 1384.02 311.11 1374.84 316.87C1365.84 322.45 1353.15 325.24 1336.77 325.24ZM1432.47 322V103.3H1480.8V191.86H1514.55V103.3H1563.15V322H1514.55V226.42H1480.8V322H1432.47Z" fill="#E8E8E8"/>
</svg>
