<svg width="1670" height="400" viewBox="0 0 1670 400" fill="none" xmlns="http://www.w3.org/2000/svg">
<path d="M72.36 325.24C57.6 325.24 45.9 322.18 37.26 316.06C28.62 309.76 22.41 300.94 18.63 289.6C15.03 278.08 13.23 264.76 13.23 249.64V176.47C13.23 160.81 15.12 147.31 18.9 135.97C22.68 124.63 29.25 115.9 38.61 109.78C48.15 103.66 61.02 100.6 77.22 100.6C92.88 100.6 105.21 103.21 114.21 108.43C123.39 113.65 129.96 121.03 133.92 130.57C137.88 140.11 139.86 151.45 139.86 164.59V177.28H96.39V161.89C96.39 156.13 96.03 151.09 95.31 146.77C94.59 142.27 92.88 138.76 90.18 136.24C87.66 133.72 83.52 132.46 77.76 132.46C71.82 132.46 67.5 133.99 64.8 137.05C62.1 140.11 60.39 144.07 59.67 148.93C58.95 153.61 58.59 158.65 58.59 164.05V260.98C58.59 267.1 59.13 272.59 60.21 277.45C61.29 282.31 63.27 286.09 66.15 288.79C69.21 291.49 73.53 292.84 79.11 292.84C84.69 292.84 89.01 291.4 92.07 288.52C95.13 285.64 97.2 281.77 98.28 276.91C99.54 271.87 100.17 266.2 100.17 259.9V236.68H78.84V209.68H140.4V322H111.24L108.54 302.29C105.66 308.95 101.34 314.44 95.58 318.76C89.82 323.08 82.08 325.24 72.36 325.24ZM187.182 322V103.3H282.492V134.08H231.732V192.13H270.882V223.18H231.732V291.76H283.032V322H187.182ZM342.29 322V136.51H308.54V103.3H420.32V136.51H387.11V322H342.29ZM540.599 322V103.3H584.879V322H540.599ZM634.57 322V103.3H665.62L714.22 217.24V103.3H750.94V322H721.24L672.64 201.04V322H634.57ZM904.492 322V136.51H870.742V103.3H982.522V136.51H949.312V322H904.492ZM1247.52 324.97C1230.96 324.97 1218.09 322.18 1208.91 316.6C1199.73 310.84 1193.25 302.65 1189.47 292.03C1185.87 281.23 1184.07 268.18 1184.07 252.88V103.3H1228.08V259.09C1228.08 264.49 1228.44 269.8 1229.16 275.02C1230.06 280.24 1231.86 284.47 1234.56 287.71C1237.44 290.95 1241.76 292.57 1247.52 292.57C1253.46 292.57 1257.78 290.95 1260.48 287.71C1263.36 284.47 1265.16 280.24 1265.88 275.02C1266.6 269.8 1266.96 264.49 1266.96 259.09V103.3H1310.97V252.88C1310.97 268.18 1309.08 281.23 1305.3 292.03C1301.7 302.65 1295.31 310.84 1286.13 316.6C1276.95 322.18 1264.08 324.97 1247.52 324.97ZM1419 324.97C1402.8 324.97 1389.93 321.91 1380.39 315.79C1371.03 309.67 1364.46 301.21 1360.68 290.41C1356.9 279.43 1355.01 266.74 1355.01 252.34V173.77C1355.01 158.65 1356.9 145.69 1360.68 134.89C1364.46 123.91 1371.03 115.45 1380.39 109.51C1389.93 103.57 1402.8 100.6 1419 100.6C1434.66 100.6 1446.9 103.21 1455.72 108.43C1464.72 113.65 1471.02 121.03 1474.62 130.57C1478.4 140.11 1480.29 151.18 1480.29 163.78V182.14H1437.09V161.62C1437.09 156.58 1436.82 151.9 1436.28 147.58C1435.74 143.08 1434.21 139.48 1431.69 136.78C1429.35 133.9 1425.21 132.46 1419.27 132.46C1413.33 132.46 1409.01 133.9 1406.31 136.78C1403.61 139.66 1401.9 143.44 1401.18 148.12C1400.46 152.62 1400.1 157.66 1400.1 163.24V262.6C1400.1 268.72 1400.55 274.12 1401.45 278.8C1402.53 283.3 1404.42 286.81 1407.12 289.33C1410 291.67 1414.05 292.84 1419.27 292.84C1425.03 292.84 1429.08 291.49 1431.42 288.79C1433.94 285.91 1435.47 282.13 1436.01 277.45C1436.73 272.77 1437.09 267.82 1437.09 262.6V241.27H1480.29V259.36C1480.29 272.14 1478.49 283.48 1474.89 293.38C1471.29 303.1 1465.08 310.84 1456.26 316.6C1447.44 322.18 1435.02 324.97 1419 324.97ZM1524.23 322V103.3H1568.78V193.21H1607.39V103.3H1651.94V322H1607.39V225.07H1568.78V322H1524.23Z" fill="#2B2B2B"/>
<ellipse cx="1071" cy="211" rx="107" ry="110" fill="#FF4040"/>
</svg>
