<svg width="211" height="205" viewBox="0 0 211 205" fill="none" xmlns="http://www.w3.org/2000/svg">
<path d="M63.2482 199.991C61.2498 199.071 59.6763 197.874 58.5279 196.399C57.3614 194.915 56.7038 193.258 56.5552 191.429C56.38 189.609 56.7314 187.745 57.6094 185.837C58.4874 183.93 59.6746 182.451 61.1709 181.4C62.6407 180.359 64.3184 179.799 66.2041 179.72C68.0716 179.633 70.0046 180.05 72.0031 180.969L78.6526 184.03L69.8978 203.052L63.2482 199.991ZM70.6468 184.275C68.6483 183.355 66.8532 183.19 65.2614 183.778C63.6696 184.366 62.4179 185.651 61.5065 187.631C60.5951 189.611 60.4293 191.406 61.0093 193.016C61.581 194.644 62.8661 195.918 64.8645 196.838L67.5625 198.08L73.3447 185.517L70.6468 184.275Z" fill="black"/>
<path d="M23.6941 169.216L39.8353 155.877L42.5109 159.114L26.3697 172.454L23.6941 169.216Z" fill="black"/>
<path d="M24.9285 124.191C25.2782 125.608 25.3516 126.95 25.1487 128.215C24.9411 129.461 24.4624 130.527 23.7126 131.412C22.9628 132.297 21.969 132.903 20.731 133.229L19.6533 128.86C20.4739 128.596 21.0622 128.142 21.4183 127.498C21.7697 126.834 21.8304 126.036 21.6004 125.104C21.3657 124.153 20.958 123.46 20.3773 123.027C19.7771 122.598 19.1081 122.475 18.3702 122.657C17.7683 122.805 17.3186 123.112 17.0213 123.577C16.7239 124.041 16.5379 124.582 16.4632 125.197C16.3643 125.799 16.2987 126.618 16.2664 127.656C16.2037 129.072 16.0909 130.243 15.928 131.169C15.7408 132.081 15.3428 132.931 14.734 133.72C14.101 134.494 13.1437 135.039 11.8621 135.355C10.6582 135.652 9.53536 135.61 8.49364 135.228C7.45193 134.846 6.56393 134.169 5.82966 133.197C5.07597 132.229 4.52669 131.046 4.1818 129.648C3.66448 127.551 3.75993 125.725 4.46814 124.17C5.15215 122.601 6.39003 121.523 8.18179 120.937L9.28829 125.422C8.59882 125.634 8.10024 126.076 7.79254 126.749C7.46063 127.408 7.40724 128.193 7.63237 129.106C7.82876 129.902 8.19072 130.493 8.71825 130.878C9.24099 131.243 9.89071 131.33 10.6674 131.138C11.2111 131.004 11.6243 130.717 11.9071 130.276C12.1656 129.821 12.3467 129.303 12.4504 128.721C12.5298 128.125 12.5955 127.305 12.6472 126.262C12.7099 124.846 12.8324 123.673 13.0148 122.742C13.1971 121.811 13.6024 120.949 14.2307 120.155C14.8589 119.362 15.8041 118.809 17.0663 118.498C18.1537 118.23 19.2328 118.262 20.3038 118.595C21.3748 118.929 22.326 119.569 23.1573 120.518C23.9693 121.471 24.5596 122.695 24.9285 124.191Z" fill="black"/>
<path d="M11.8122 96.0314C9.79614 95.6082 8.08992 94.7799 6.69352 93.5467C5.28166 92.2898 4.2997 90.7859 3.74766 89.0351C3.18016 87.2607 3.10188 85.3948 3.51282 83.4374C3.99363 81.1474 5.00204 79.2644 6.53807 77.7885C8.0741 76.3126 9.95141 75.45 12.17 75.2005L11.1776 79.9274C10.1003 80.1917 9.22656 80.7031 8.55642 81.4616C7.89038 82.2005 7.44024 83.1278 7.206 84.2435C6.95533 85.4375 7.01518 86.5638 7.38555 87.6225C7.74045 88.6575 8.37133 89.5461 9.27819 90.2882C10.1892 91.0108 11.3297 91.516 12.6998 91.8036C14.0504 92.0872 15.2978 92.0834 16.442 91.7923C17.5708 91.4775 18.5155 90.9197 19.2763 90.119C20.0216 89.2945 20.5196 88.2853 20.7703 87.0913C21.0045 85.9757 20.9653 84.9456 20.6527 84.0012C20.3246 83.0332 19.7205 82.2115 18.8405 81.5363L19.8329 76.8093C21.7834 77.9341 23.1651 79.481 23.9778 81.45C24.7751 83.3954 24.9313 85.5228 24.4464 87.8325C24.0355 89.7898 23.2232 91.4687 22.0095 92.8692C20.7804 94.2461 19.2765 95.228 17.498 95.8151C15.7235 96.3826 13.8282 96.4547 11.8122 96.0314Z" fill="black"/>
<path d="M39.8567 54.5114C38.6616 56.0648 37.1995 57.211 35.4703 57.9499C33.7411 58.6888 31.9418 58.9448 30.0725 58.7179C28.1873 58.4788 26.4283 57.7312 24.7955 56.4751C23.1786 55.2312 22.0209 53.7349 21.3222 51.9862C20.6077 50.2254 20.3859 48.4145 20.6567 46.5537C20.9275 44.6929 21.6605 42.9857 22.8556 41.4322C24.0629 39.8629 25.525 38.7167 27.242 37.9937C28.9712 37.2548 30.7723 37.0128 32.6453 37.2678C34.5147 37.4947 36.2578 38.2301 37.8747 39.474C39.5074 40.7301 40.681 42.2385 41.3955 43.9994C42.1064 45.7323 42.3264 47.5291 42.0556 49.3899C41.7848 51.2507 41.0518 52.9579 39.8567 54.5114ZM36.8845 52.2248C37.6528 51.2261 38.1077 50.1756 38.2492 49.0733C38.3748 47.9587 38.1822 46.8643 37.6713 45.79C37.1604 44.7156 36.3502 43.7516 35.2405 42.898C34.1309 42.0443 32.9993 41.5144 31.8458 41.3083C30.6763 41.09 29.577 41.1905 28.5478 41.6099C27.5186 42.0294 26.6199 42.7384 25.8516 43.7371C25.0833 44.7358 24.6223 45.7942 24.4686 46.9124C24.3271 48.0147 24.5118 49.1031 25.0227 50.1774C25.5177 51.2396 26.32 52.1974 27.4297 53.0511C28.5393 53.9047 29.6788 54.4407 30.8482 54.6591C32.0176 54.8774 33.1249 54.783 34.1699 54.3757C35.2113 53.9404 36.1162 53.2235 36.8845 52.2248Z" fill="black"/>
<path d="M67.8676 7.56478L70.4208 29.7221L65.8652 32.0148L49.5915 16.7624L53.6112 14.7395L66.2413 27.0229L63.8748 9.57423L67.8676 7.56478Z" fill="black"/>
<path d="M101.999 4.49762L102.091 9.74682L109.14 9.62378L109.198 12.9533L102.149 13.0763L102.246 18.6255L110.195 18.4867L110.254 21.9062L98.1062 22.1182L97.7403 1.15144L109.888 0.939398L109.948 4.35888L101.999 4.49762Z" fill="black"/>
<path d="M143.131 30.9686L142.346 21.6244L140.548 20.7966L137.136 28.2092L133.321 26.4532L142.076 7.43122L149.216 10.7174C150.687 11.3947 151.82 12.2352 152.613 13.2387C153.414 14.224 153.864 15.2788 153.963 16.4032C154.089 17.5178 153.901 18.6201 153.399 19.7102C152.822 20.9638 151.936 21.932 150.741 22.615C149.554 23.2797 148.156 23.4726 146.545 23.1935L147.546 33.0005L143.131 30.9686ZM141.865 17.9351L145.053 19.4026C146.089 19.8793 146.974 19.9894 147.708 19.733C148.451 19.4584 149.027 18.876 149.437 17.9858C149.838 17.1137 149.893 16.3244 149.602 15.6179C149.319 14.8932 148.66 14.2926 147.624 13.816L144.436 12.3485L141.865 17.9351Z" fill="black"/>
<path d="M209.234 91.6706L188.903 96.6858L187.897 92.608L201.121 89.346L186.554 87.1613L185.792 84.0739L197.665 75.336L184.441 78.598L183.435 74.5202L203.766 69.5051L204.908 74.1362L191.387 84.3314L208.099 87.0686L209.234 91.6706Z" fill="black"/>
<path d="M186.488 122.026C186.891 120.107 187.711 118.44 188.948 117.024C190.186 115.608 191.696 114.597 193.478 113.99C195.281 113.388 197.19 113.298 199.206 113.722C201.202 114.141 202.895 114.986 204.283 116.259C205.691 117.535 206.676 119.071 207.24 120.865C207.803 122.659 207.883 124.515 207.481 126.433C207.074 128.371 206.254 130.038 205.021 131.434C203.783 132.85 202.265 133.85 200.467 134.433C198.685 135.039 196.795 135.133 194.799 134.714C192.782 134.291 191.071 133.441 189.663 132.164C188.271 130.911 187.293 129.388 186.729 127.594C186.166 125.8 186.086 123.944 186.488 122.026ZM190.158 122.796C189.899 124.029 189.945 125.173 190.296 126.228C190.667 127.286 191.315 128.189 192.241 128.935C193.168 129.681 194.316 130.198 195.686 130.486C197.056 130.774 198.306 130.76 199.435 130.445C200.583 130.135 201.53 129.567 202.275 128.743C203.02 127.918 203.522 126.889 203.781 125.656C204.04 124.423 203.996 123.27 203.65 122.195C203.299 121.141 202.66 120.24 201.734 119.494C200.827 118.752 199.688 118.237 198.318 117.949C196.948 117.662 195.689 117.673 194.541 117.984C193.392 118.295 192.436 118.86 191.671 119.68C190.921 120.524 190.417 121.563 190.158 122.796Z" fill="black"/>
<path d="M169.265 158.196L178.549 159.51L179.757 157.941L173.289 152.965L175.85 149.636L192.447 162.404L187.654 168.634C186.666 169.918 185.595 170.835 184.44 171.385C183.301 171.947 182.173 172.151 181.055 171.998C179.94 171.872 178.907 171.443 177.956 170.711C176.862 169.87 176.115 168.791 175.716 167.474C175.331 166.169 175.455 164.762 176.085 163.254L166.301 162.048L169.265 158.196ZM182.253 159.861L180.113 162.643C179.418 163.547 179.114 164.385 179.2 165.158C179.303 165.944 179.742 166.635 180.519 167.233C181.28 167.818 182.037 168.047 182.791 167.92C183.56 167.806 184.292 167.297 184.987 166.393L187.128 163.611L182.253 159.861Z" fill="black"/>
<path d="M152.199 194.049L149.839 189.36L143.542 192.529L142.045 189.554L148.342 186.385L145.847 181.427L138.746 185.001L137.208 181.946L148.061 176.484L157.488 195.216L146.635 200.678L145.098 197.623L152.199 194.049Z" fill="black"/>
</svg>
